<svg width="100%" height="100%" viewBox="0 0 1440 320" xmlns="http://www.w3.org/2000/svg">
  <path fill="#ffd983" d="M0,96L30,112C60,128,120,160,180,176C240,192,300,192,360,170.7C420,149,480,107,540,96C600,85,660,107,720,138.7C780,171,840,213,900,218.7C960,224,1020,192,1080,154.7C1140,117,1200,75,1260,64C1320,53,1380,75,1410,85.3L1440,96L1440,320L1410,320C1380,320,1320,320,1260,320C1200,320,1140,320,1080,320C1020,320,960,320,900,320C840,320,780,320,720,320C660,320,600,320,540,320C480,320,420,320,360,320C300,320,240,320,180,320C120,320,60,320,30,320L0,320Z"></path>
</svg>
